<svg width="981" height="670" viewBox="0 0 981 670" fill="none" xmlns="http://www.w3.org/2000/svg">
<path d="M842.198 279.751C855.72 293.91 870.805 296.169 887.455 286.529C880.468 275.349 878.805 263.189 880.667 250.379H848.232C849.669 261.636 849.283 272.117 842.198 279.751Z" fill="#FFB8B8"/>
<path d="M895.752 650.281L913.102 641.244L920.644 545.599V495.14L880.666 494.387L891.98 544.846L895.752 650.281Z" fill="#FFB8B8"/>
<path d="M845.463 650.281L828.115 641.244L820.573 545.599V495.14L860.549 494.387L849.235 544.846L845.463 650.281Z" fill="#FFB8B8"/>
<path d="M818.815 505.684L861.055 501.918L867.844 463.51L876.141 501.165L922.153 498.153C923.158 479.854 920.604 461.02 914.61 441.67L813.535 439.41L818.815 505.684Z" fill="#0B0526"/>
<path d="M774.911 361.438L724.101 322.374C723.573 321.968 722.994 321.636 722.377 321.385L714.992 318.385C709.06 315.976 697.762 307.961 703.272 299.709C707.715 293.055 724.72 304.974 726.812 309.39C727.473 310.78 728.558 311.925 729.91 312.662L740.236 318.311C740.487 318.449 740.746 318.572 741.011 318.679L780.324 334.588C781.413 335.029 782.593 335.204 783.764 335.099C784.935 334.993 786.064 334.61 787.057 333.982L794.184 329.469C795.198 328.827 796.354 328.442 797.551 328.346C798.748 328.25 799.95 328.447 801.054 328.919C802.157 329.392 803.129 330.126 803.885 331.058C804.64 331.989 805.157 333.091 805.391 334.267L807.746 346.137C808.085 347.846 807.808 349.62 806.963 351.144C806.118 352.668 804.76 353.845 803.129 354.466L782.052 362.487C780.871 362.936 779.595 363.076 778.345 362.892C777.094 362.709 775.912 362.208 774.911 361.438Z" fill="#FFB8B8"/>
<path d="M784.349 332.976C798.417 329.21 796.94 348.832 807.673 358.481L828.775 341.847L816.552 282.763C813.273 283.699 810.256 285.383 807.741 287.682C805.225 289.982 803.28 292.834 802.059 296.014L784.349 332.976Z" fill="#FFBB4E"/>
<path d="M810.518 443.176H916.873C899.66 396.864 901.336 349.232 915.992 300.694C916.238 299.888 916.194 299.022 915.869 298.245C915.544 297.467 914.957 296.828 914.211 296.436L883.684 280.504C871.701 288.289 858.822 285.896 845.215 275.232L812.026 284.269C821.061 338.447 821.318 391.512 810.518 443.176Z" fill="#FFBB4E"/>
<path d="M837.112 667.97L792.789 669.845C790.859 669.927 788.967 669.293 787.478 668.065C785.988 666.838 785.005 665.103 784.72 663.196C784.431 661.27 784.873 659.305 785.96 657.688C787.047 656.07 788.7 654.916 790.595 654.453L798.113 652.613L827.66 635.513C832.038 640.039 838.065 643.866 845.434 647.125L845.521 659.147C845.537 661.419 844.669 663.608 843.101 665.254C841.532 666.9 839.385 667.873 837.112 667.97Z" fill="#0B0526"/>
<path d="M903.736 667.298L948.059 669.173C949.989 669.255 951.881 668.621 953.37 667.393C954.86 666.166 955.843 664.431 956.128 662.524C956.417 660.598 955.974 658.633 954.888 657.016C953.801 655.398 952.148 654.244 950.253 653.781L942.735 651.941L913.188 634.841C908.81 639.367 902.782 643.194 895.413 646.453L895.327 658.475C895.311 660.747 896.179 662.936 897.747 664.582C899.316 666.228 901.463 667.201 903.736 667.298Z" fill="#0B0526"/>
<path d="M861.055 263.935C874.386 263.935 885.192 253.146 885.192 239.836C885.192 226.526 874.386 215.736 861.055 215.736C847.724 215.736 836.918 226.526 836.918 239.836C836.918 253.146 847.724 263.935 861.055 263.935Z" fill="#FFB8B8"/>
<path d="M898.77 435.645L890.795 451.126C890.092 452.492 889.686 453.991 889.604 455.525C889.522 457.059 889.766 458.593 890.32 460.026C890.874 461.46 891.726 462.759 892.819 463.84C893.913 464.921 895.223 465.759 896.663 466.298C898.188 466.869 899.822 467.092 901.444 466.95C903.066 466.808 904.636 466.305 906.038 465.478C907.44 464.651 908.639 463.521 909.546 462.171C910.454 460.821 911.047 459.285 911.282 457.676L914.61 434.892L926.678 377.655L925.924 349.037H901.787C910.02 370.322 905.936 401.719 898.77 435.645Z" fill="#FFB8B8"/>
<path d="M898.015 352.049H930.45L925.742 316.534C925.103 311.718 923.267 307.138 920.4 303.212C917.533 299.286 913.727 296.14 909.33 294.06L898.015 352.049Z" fill="#FFBB4E"/>
<path d="M886.716 226.561C887.199 223.342 886.996 220.057 886.122 216.921C885.248 213.785 883.722 210.869 881.643 208.361C877.525 203.495 870.622 199.513 859.17 201.392C834.183 205.491 826.978 226.259 829.426 231.482C831.874 236.705 839.378 248.813 839.378 248.813C839.378 248.813 833.871 236.827 839.847 234.388C845.824 231.948 868.954 222.338 877.027 226.667C879.313 227.813 881.253 229.543 882.651 231.681C884.049 233.819 884.854 236.288 884.985 238.838L886.716 226.561Z" fill="#0B0526"/>
<path d="M473.589 126.263L463.884 131.18C452.706 109.204 437.897 89.2671 420.08 72.2069C332.582 -11.7794 192.962 -9.03358 108.845 78.3278C24.7268 165.689 27.4769 305.091 114.975 389.077C131.628 405.094 150.707 418.389 171.508 428.473L166.761 438.249C133.79 422.265 105.102 398.677 83.0669 369.435C61.0317 340.192 46.2819 306.134 40.0362 270.075C33.7905 234.016 36.228 196.99 47.1476 162.058C58.0671 127.125 77.1551 95.2878 102.834 69.1768C128.514 43.0657 160.047 23.4303 194.83 11.8927C229.612 0.355215 266.645 -2.75321 302.869 2.8243C339.092 8.40181 373.467 22.5051 403.152 43.9691C432.837 65.433 456.981 93.6413 473.589 126.263Z" fill="#F4F4F6"/>
<path d="M145.264 328.403C130.989 343.228 123.198 363.107 123.603 383.668C124.009 404.228 132.578 423.786 147.426 438.038C162.275 452.29 182.185 460.069 202.778 459.664C223.37 459.259 242.959 450.703 257.233 435.878L270.603 421.993L158.633 314.518L145.264 328.403Z" fill="#F4F4F6"/>
<path d="M151.131 306.631C147.954 309.939 146.22 314.369 146.311 318.951C146.401 323.533 148.308 327.892 151.613 331.072L254.312 429.649C257.622 432.826 262.06 434.56 266.651 434.47C271.242 434.379 275.609 432.472 278.791 429.167C281.973 425.862 283.71 421.431 283.619 416.847C283.529 412.263 281.619 407.904 278.309 404.726L175.61 306.15C172.298 302.978 167.86 301.247 163.271 301.337C158.682 301.427 154.316 303.331 151.131 306.631Z" fill="#535461"/>
<path d="M459.151 226.174L472.521 212.289C486.795 197.464 494.586 177.585 494.181 157.024C493.775 136.464 485.206 116.906 470.358 102.654C463.006 95.5972 454.334 90.0552 444.836 86.3445C435.339 82.6339 425.203 80.8272 415.006 81.0277C394.414 81.4327 374.825 89.9888 360.551 104.814L347.181 118.699L459.151 226.174Z" fill="#F4F4F6"/>
<path d="M338.993 111.525C335.816 114.832 334.083 119.263 334.173 123.845C334.263 128.427 336.17 132.786 339.476 135.966L442.174 234.542C445.485 237.716 449.922 239.447 454.511 239.355C459.099 239.263 463.463 237.356 466.644 234.052C469.825 230.749 471.562 226.32 471.473 221.738C471.384 217.157 469.477 212.798 466.171 209.62L363.473 111.043C360.16 107.871 355.723 106.14 351.133 106.23C346.544 106.321 342.178 108.225 338.993 111.525Z" fill="#535461"/>
<path d="M382.316 339.333V331.323C382.316 331.323 417.32 311.664 445.761 331.323V338.604L382.316 339.333Z" fill="#535461"/>
<path d="M700.999 339.333V331.323C700.999 331.323 736.003 311.664 764.444 331.323V338.604L700.999 339.333Z" fill="#535461"/>
<path d="M487.328 338.605H453.053C453.053 338.605 444.302 328.411 415.132 329.139C385.962 329.867 380.128 338.605 380.128 338.605C380.128 338.605 351.322 357.9 344.759 381.927C344.759 381.927 309.39 487.868 308.661 570.872C307.932 653.877 340.019 665.527 356.792 667.711C373.565 669.895 403.464 666.983 432.634 593.444L445.031 550.485C445.031 550.485 447.219 525.001 473.472 541.02C499.725 557.038 523.061 532.282 523.061 532.282H621.51C621.51 532.282 654.327 552.669 684.226 536.651C684.226 536.651 695.894 521.361 706.833 573.057C706.833 573.057 740.378 679.361 792.155 668.439C843.932 657.518 838.098 568.688 838.098 568.688C838.098 568.688 831.17 432.895 802.729 384.84C802.729 384.84 775.382 334.964 757.151 332.78C757.151 332.78 717.771 325.499 702.457 332.052L693.706 339.333L487.328 338.605Z" fill="#F4F4F6"/>
<path d="M407.84 473.305C442.879 473.305 471.284 444.944 471.284 409.959C471.284 374.975 442.879 346.614 407.84 346.614C372.8 346.614 344.395 374.975 344.395 409.959C344.395 444.944 372.8 473.305 407.84 473.305Z" fill="#535461"/>
<path d="M738.92 473.305C773.959 473.305 802.365 444.944 802.365 409.959C802.365 374.975 773.959 346.614 738.92 346.614C703.88 346.614 675.475 374.975 675.475 409.959C675.475 444.944 703.88 473.305 738.92 473.305Z" fill="#535461"/>
<path d="M418.895 395.834L410.436 403.305C409.719 403.934 408.798 404.282 407.843 404.282C406.889 404.282 405.967 403.934 405.251 403.305L396.777 395.834C396.362 395.47 396.03 395.022 395.801 394.52C395.572 394.018 395.453 393.473 395.449 392.922V372.367C395.451 371.329 395.866 370.335 396.601 369.602C397.337 368.869 398.334 368.457 399.373 368.457H416.328C417.367 368.455 418.363 368.865 419.099 369.597C419.835 370.329 420.249 371.323 420.251 372.36V392.907C420.247 393.463 420.123 394.012 419.889 394.517C419.656 395.022 419.317 395.471 418.895 395.834Z" fill="#F4F4F6"/>
<path d="M418.895 424.078L410.436 416.614C409.719 415.985 408.798 415.637 407.843 415.637C406.889 415.637 405.967 415.985 405.251 416.614L396.777 424.085C396.362 424.449 396.03 424.897 395.801 425.399C395.572 425.901 395.453 426.446 395.45 426.997V447.53C395.448 448.567 395.858 449.562 396.591 450.297C397.324 451.032 398.32 451.445 399.358 451.447H416.328C417.367 451.449 418.363 451.039 419.099 450.307C419.835 449.575 420.249 448.582 420.251 447.545V427.005C420.247 426.448 420.123 425.9 419.889 425.395C419.656 424.89 419.317 424.441 418.895 424.078Z" fill="#F4F4F6"/>
<path d="M393.699 421.012L401.181 412.552C401.812 411.836 402.16 410.916 402.16 409.963C402.16 409.01 401.812 408.09 401.181 407.375L393.699 398.914C393.334 398.501 392.885 398.169 392.382 397.941C391.88 397.712 391.335 397.592 390.782 397.589H370.217C369.178 397.591 368.182 398.004 367.448 398.739C366.714 399.473 366.301 400.468 366.301 401.506V418.435C366.299 419.472 366.71 420.467 367.443 421.202C368.176 421.936 369.171 422.35 370.21 422.352H390.79C391.342 422.346 391.886 422.224 392.388 421.993C392.889 421.762 393.336 421.428 393.699 421.012Z" fill="#F4F4F6"/>
<path d="M421.987 421.012L414.519 412.544C413.887 411.83 413.538 410.909 413.538 409.956C413.538 409.002 413.887 408.082 414.519 407.367L422.002 398.907C422.367 398.493 422.815 398.161 423.318 397.933C423.821 397.704 424.366 397.585 424.919 397.582H445.484C446.522 397.58 447.519 397.99 448.255 398.722C448.99 399.454 449.405 400.447 449.407 401.484V418.428C449.409 419.464 448.998 420.46 448.265 421.194C447.532 421.929 446.537 422.343 445.498 422.345H424.926C424.369 422.344 423.819 422.225 423.313 421.995C422.806 421.765 422.354 421.43 421.987 421.012Z" fill="#F4F4F6"/>
<path d="M493.891 525.001C519.265 525.001 539.834 504.464 539.834 479.13C539.834 453.796 519.265 433.259 493.891 433.259C468.518 433.259 447.948 453.796 447.948 479.13C447.948 504.464 468.518 525.001 493.891 525.001Z" fill="#535461"/>
<path d="M652.868 525.001C678.242 525.001 698.811 504.464 698.811 479.13C698.811 453.796 678.242 433.259 652.868 433.259C627.495 433.259 606.925 453.796 606.925 479.13C606.925 504.464 627.495 525.001 652.868 525.001Z" fill="#535461"/>
<path d="M493.891 509.711C510.807 509.711 524.52 496.019 524.52 479.13C524.52 462.241 510.807 448.549 493.891 448.549C476.976 448.549 463.263 462.241 463.263 479.13C463.263 496.019 476.976 509.711 493.891 509.711Z" fill="#F4F4F6"/>
<path d="M493.891 500.245C489.709 500.245 485.62 499.007 482.142 496.687C478.664 494.366 475.953 491.069 474.353 487.21C472.752 483.352 472.333 479.107 473.149 475.011C473.965 470.915 475.98 467.152 478.937 464.199C481.895 461.246 485.663 459.235 489.765 458.42C493.868 457.606 498.12 458.024 501.984 459.622C505.849 461.22 509.152 463.927 511.476 467.399C513.799 470.871 515.04 474.954 515.04 479.13C515.033 484.728 512.803 490.095 508.838 494.054C504.874 498.012 499.498 500.239 493.891 500.245ZM493.891 459.471C489.997 459.471 486.19 460.624 482.952 462.784C479.714 464.944 477.191 468.015 475.7 471.607C474.21 475.199 473.82 479.152 474.58 482.965C475.34 486.779 477.215 490.282 479.969 493.031C482.722 495.78 486.231 497.653 490.05 498.411C493.87 499.17 497.828 498.78 501.426 497.293C505.024 495.805 508.099 493.285 510.263 490.052C512.426 486.819 513.581 483.018 513.581 479.13C513.575 473.918 511.499 468.921 507.808 465.236C504.116 461.55 499.112 459.477 493.891 459.471Z" fill="#535461"/>
<path d="M652.868 509.711C669.784 509.711 683.497 496.019 683.497 479.13C683.497 462.241 669.784 448.549 652.868 448.549C635.952 448.549 622.239 462.241 622.239 479.13C622.239 496.019 635.952 509.711 652.868 509.711Z" fill="#F4F4F6"/>
<path d="M652.868 500.245C648.685 500.245 644.597 499.007 641.119 496.687C637.641 494.366 634.93 491.069 633.33 487.21C631.729 483.352 631.31 479.107 632.126 475.011C632.942 470.915 634.956 467.152 637.914 464.199C640.872 461.246 644.64 459.235 648.742 458.42C652.845 457.606 657.097 458.024 660.961 459.622C664.826 461.22 668.129 463.927 670.452 467.399C672.776 470.871 674.016 474.954 674.016 479.13C674.01 484.728 671.78 490.095 667.815 494.054C663.85 498.012 658.475 500.239 652.868 500.245ZM652.868 459.471C648.974 459.471 645.167 460.624 641.929 462.784C638.691 464.944 636.167 468.015 634.677 471.607C633.187 475.199 632.797 479.152 633.557 482.965C634.316 486.779 636.192 490.282 638.945 493.031C641.699 495.78 645.207 497.653 649.027 498.411C652.846 499.17 656.805 498.78 660.403 497.293C664.001 495.805 667.076 493.285 669.24 490.052C671.403 486.819 672.558 483.018 672.558 479.13C672.552 473.918 670.476 468.921 666.784 465.236C663.093 461.55 658.088 459.477 652.868 459.471Z" fill="#535461"/>
<path d="M574.838 497.333C582.088 497.333 587.965 491.465 587.965 484.227C587.965 476.989 582.088 471.121 574.838 471.121C567.589 471.121 561.712 476.989 561.712 484.227C561.712 491.465 567.589 497.333 574.838 497.333Z" fill="#535461"/>
<path d="M554.776 443.343C556.359 443.343 557.642 442.062 557.642 440.482C557.642 438.902 556.359 437.62 554.776 437.62C553.194 437.62 551.911 438.902 551.911 440.482C551.911 442.062 553.194 443.343 554.776 443.343Z" fill="#535461"/>
<path d="M565.511 443.343C567.094 443.343 568.377 442.062 568.377 440.482C568.377 438.902 567.094 437.62 565.511 437.62C563.928 437.62 562.645 438.902 562.645 440.482C562.645 442.062 563.928 443.343 565.511 443.343Z" fill="#535461"/>
<path d="M564.082 456.923C565.664 456.923 566.948 455.642 566.948 454.061C566.948 452.481 565.664 451.2 564.082 451.2C562.499 451.2 561.216 452.481 561.216 454.061C561.216 455.642 562.499 456.923 564.082 456.923Z" fill="#535461"/>
<path d="M574.109 457.287C575.72 457.287 577.026 455.983 577.026 454.374C577.026 452.766 575.72 451.462 574.109 451.462C572.498 451.462 571.192 452.766 571.192 454.374C571.192 455.983 572.498 457.287 574.109 457.287Z" fill="#535461"/>
<path d="M584.121 456.923C585.704 456.923 586.987 455.642 586.987 454.061C586.987 452.481 585.704 451.2 584.121 451.2C582.539 451.2 581.255 452.481 581.255 454.061C581.255 455.642 582.539 456.923 584.121 456.923Z" fill="#535461"/>
<path d="M559.786 450.493C561.369 450.493 562.652 449.212 562.652 447.632C562.652 446.052 561.369 444.771 559.786 444.771C558.204 444.771 556.92 446.052 556.92 447.632C556.92 449.212 558.204 450.493 559.786 450.493Z" fill="#535461"/>
<path d="M569.004 450.734C570.615 450.734 571.921 449.43 571.921 447.821C571.921 446.213 570.615 444.909 569.004 444.909C567.393 444.909 566.087 446.213 566.087 447.821C566.087 449.43 567.393 450.734 569.004 450.734Z" fill="#535461"/>
<path d="M578.484 450.734C580.095 450.734 581.401 449.43 581.401 447.821C581.401 446.213 580.095 444.909 578.484 444.909C576.873 444.909 575.567 446.213 575.567 447.821C575.567 449.43 576.873 450.734 578.484 450.734Z" fill="#535461"/>
<path d="M588.417 450.493C590 450.493 591.283 449.212 591.283 447.632C591.283 446.052 590 444.771 588.417 444.771C586.834 444.771 585.551 446.052 585.551 447.632C585.551 449.212 586.834 450.493 588.417 450.493Z" fill="#535461"/>
<path d="M574.109 443.453C575.72 443.453 577.026 442.149 577.026 440.54C577.026 438.932 575.72 437.628 574.109 437.628C572.498 437.628 571.192 438.932 571.192 440.54C571.192 442.149 572.498 443.453 574.109 443.453Z" fill="#535461"/>
<path d="M584.318 443.453C585.929 443.453 587.235 442.149 587.235 440.54C587.235 438.932 585.929 437.628 584.318 437.628C582.707 437.628 581.401 438.932 581.401 440.54C581.401 442.149 582.707 443.453 584.318 443.453Z" fill="#535461"/>
<path d="M592.712 443.343C594.295 443.343 595.578 442.062 595.578 440.482C595.578 438.902 594.295 437.62 592.712 437.62C591.129 437.62 589.846 438.902 589.846 440.482C589.846 442.062 591.129 443.343 592.712 443.343Z" fill="#535461"/>
<path d="M465.815 344.81C464.466 344.812 463.173 345.347 462.219 346.3C461.265 347.252 460.728 348.543 460.727 349.89V365.181C460.728 366.528 461.265 367.819 462.219 368.771C463.173 369.724 464.466 370.259 465.815 370.261H469.461C470.81 370.259 472.103 369.724 473.057 368.771C474.011 367.819 474.548 366.528 474.549 365.181V349.89C474.548 348.543 474.011 347.252 473.057 346.3C472.103 345.347 470.81 344.812 469.461 344.81H465.815Z" fill="#535461"/>
<path d="M678.756 344.81C677.407 344.812 676.114 345.347 675.16 346.3C674.206 347.252 673.67 348.543 673.668 349.89V365.181C673.67 366.528 674.206 367.819 675.16 368.771C676.114 369.724 677.407 370.259 678.756 370.261H682.403C683.752 370.259 685.045 369.724 685.999 368.771C686.953 367.819 687.489 366.528 687.491 365.181V349.89C687.489 348.543 686.953 347.252 685.999 346.3C685.045 345.347 683.752 344.812 682.403 344.81H678.756Z" fill="#535461"/>
<path d="M739.649 388.844C749.315 388.844 757.151 381.021 757.151 371.37C757.151 361.719 749.315 353.895 739.649 353.895C729.983 353.895 722.147 361.719 722.147 371.37C722.147 381.021 729.983 388.844 739.649 388.844Z" fill="#F4F4F6"/>
<path d="M702.457 425.978C712.123 425.978 719.959 418.154 719.959 408.503C719.959 398.852 712.123 391.029 702.457 391.029C692.791 391.029 684.955 398.852 684.955 408.503C684.955 418.154 692.791 425.978 702.457 425.978Z" fill="#F4F4F6"/>
<path d="M778.299 423.794C787.965 423.794 795.801 415.97 795.801 406.319C795.801 396.668 787.965 388.844 778.299 388.844C768.633 388.844 760.797 396.668 760.797 406.319C760.797 415.97 768.633 423.794 778.299 423.794Z" fill="#F4F4F6"/>
<path d="M742.566 462.384C752.232 462.384 760.068 454.56 760.068 444.909C760.068 435.258 752.232 427.434 742.566 427.434C732.9 427.434 725.064 435.258 725.064 444.909C725.064 454.56 732.9 462.384 742.566 462.384Z" fill="#F4F4F6"/>
<path d="M498.814 334.617C494.903 334.621 491.153 336.174 488.388 338.935C485.623 341.696 484.067 345.44 484.063 349.344V414.51C484.067 418.415 485.623 422.158 488.388 424.919C491.153 427.68 494.903 429.233 498.814 429.238H648.674C652.585 429.233 656.334 427.68 659.1 424.919C661.865 422.158 663.421 418.415 663.425 414.51V349.344C663.421 345.44 661.865 341.696 659.1 338.935C656.334 336.174 652.585 334.621 648.674 334.617H498.814Z" fill="#535461"/>
<path d="M751.539 379.379H727.805L739.263 359.768L751.539 379.379ZM730.345 377.922H748.907L739.306 362.584L730.345 377.922Z" fill="#535461"/>
<path d="M712.302 417.24H692.612V399.766H712.302V417.24ZM694.071 415.784H710.844V401.222H694.071V415.784Z" fill="#535461"/>
<path d="M778.299 417.241C776.136 417.241 774.021 416.6 772.222 415.4C770.423 414.2 769.021 412.494 768.193 410.498C767.365 408.503 767.149 406.307 767.571 404.188C767.993 402.07 769.035 400.124 770.565 398.596C772.094 397.069 774.043 396.029 776.165 395.607C778.287 395.186 780.487 395.402 782.485 396.229C784.484 397.055 786.193 398.455 787.395 400.251C788.597 402.047 789.238 404.159 789.238 406.319C789.235 409.214 788.082 411.991 786.031 414.038C783.98 416.086 781.2 417.237 778.299 417.241ZM778.299 396.853C776.424 396.853 774.592 397.408 773.033 398.449C771.474 399.489 770.258 400.967 769.541 402.697C768.823 404.426 768.636 406.329 769.001 408.165C769.367 410.002 770.27 411.688 771.596 413.012C772.922 414.336 774.611 415.237 776.45 415.602C778.289 415.968 780.195 415.78 781.927 415.064C783.66 414.347 785.14 413.134 786.182 411.578C787.224 410.021 787.78 408.191 787.78 406.319C787.777 403.809 786.777 401.403 785 399.629C783.223 397.854 780.813 396.856 778.299 396.853Z" fill="#535461"/>
<path d="M734.695 436.203L733.664 437.232L750.072 453.615L751.103 452.585L734.695 436.203Z" fill="#535461"/>
<path d="M750.447 436.19L733.677 452.211L734.685 453.263L751.456 437.243L750.447 436.19Z" fill="#535461"/>
<path d="M155.014 168.237C115.197 179.197 71.5955 187.448 55.9724 174.648C64.5262 160.43 69.4598 146.416 69.8783 132.657C69.9726 126.362 72.5264 120.352 76.9951 115.91C79.9535 113.056 83.5245 110.913 87.4366 109.644C91.3487 108.375 95.4991 108.013 99.5725 108.585L109.906 110.033C110.254 110.081 110.6 110.137 110.944 110.198C115.904 111.137 120.445 113.602 123.93 117.249C127.415 120.895 129.669 125.54 130.375 130.531C132.552 145.45 139.873 158.367 155.014 168.237Z" fill="#0B0526"/>
<path d="M193.422 309.783L208.902 312.969C210.084 313.213 211.197 313.716 212.161 314.443C213.124 315.169 213.913 316.101 214.471 317.17C215.028 318.239 215.341 319.418 215.385 320.623C215.429 321.827 215.204 323.026 214.726 324.133C214.264 325.203 213.577 326.161 212.712 326.942C211.847 327.723 210.823 328.309 209.711 328.66C208.598 329.011 207.423 329.119 206.266 328.976C205.108 328.834 203.994 328.444 203.001 327.834L179.323 313.294L139.105 218.897L159.935 212.881L193.422 309.783Z" fill="#A0616A"/>
<path d="M83.1527 433.649L71.4321 437.052L62.5603 418.759L71.582 414.065L83.1527 433.649Z" fill="#A0616A"/>
<path d="M77.1974 512.03L62.8168 508.229L65.0681 483.561L77.444 484.322L77.1974 512.03Z" fill="#A0616A"/>
<path d="M78.6971 416.548L63.4661 426.556L4.8859 360.398C3.61523 358.963 2.67691 357.266 2.13769 355.428C1.59848 353.59 1.47162 351.656 1.76613 349.763C2.06064 347.87 2.76928 346.065 3.84165 344.477C4.91402 342.889 6.32377 341.556 7.9706 340.574L80.947 297.036L92.1243 329.095L54.1252 364.698L78.6971 416.548Z" fill="#0B0526"/>
<path d="M91.524 451.179C91.4858 451.229 91.4475 451.278 91.4091 451.327C90.4357 457.018 88.726 462.209 84.908 465.967C83.776 468.516 81.7435 470.559 79.1984 471.707C76.6534 472.854 73.7741 473.026 71.1105 472.189C68.5984 471.399 66.4391 469.762 65.002 467.559C63.565 465.355 62.9393 462.721 63.2321 460.108L66.0782 434.708C72.9055 433.141 78.1126 429.265 80.7481 421.723L87.3833 426.235C89.3469 427.56 91.0195 429.27 92.2991 431.262C93.5788 433.253 94.4385 435.484 94.826 437.818C95.2135 440.152 95.1205 442.541 94.5528 444.838C93.9851 447.135 92.9545 449.293 91.524 451.179Z" fill="#0B0526"/>
<path d="M98.7445 162.798C111.692 162.798 122.187 152.318 122.187 139.391C122.187 126.464 111.692 115.985 98.7445 115.985C85.7973 115.985 75.3016 126.464 75.3016 139.391C75.3016 152.318 85.7973 162.798 98.7445 162.798Z" fill="#A0616A"/>
<path d="M119.046 176.809L82.0885 207.369L79.2101 194.789L85.6608 184.972C87.451 175.339 86.2952 164.717 83.219 153.45L107.331 153.472C108.372 162.577 111.923 170.52 119.046 176.809Z" fill="#A0616A"/>
<path d="M129.451 256.971L79.5581 272.146L75.6765 254.428C66.3263 241.893 62.2618 230.452 68.3789 221.118L65.3006 207.067C74.1311 200.126 81.0751 193.023 84.8881 185.654L115.585 173.678L138.152 175.064L144.816 197.361L129.451 256.971Z" fill="#FFBB4E"/>
<path d="M164.897 215.374C154.261 215.262 143.853 218.446 135.106 224.488L138.152 175.064C141.244 175.476 144.175 176.685 146.656 178.571C149.138 180.458 151.085 182.956 152.306 185.822L164.897 215.374Z" fill="#FFBB4E"/>
<path d="M78.5411 490.226L62.7051 486.335L65.036 351.987L86.3006 328.737L81.5406 299.262L78.4605 266.242L130.403 253.382C147.96 285.211 158.571 314.149 143.081 332.225L78.5411 490.226Z" fill="#0B0526"/>
<path d="M74.9038 535.586C74.8328 535.614 74.7617 535.641 74.6905 535.669C70.0922 541 65.04 545.347 58.6879 546.875C55.9017 548.826 52.4933 549.684 49.1136 549.286C45.7339 548.887 42.6196 547.259 40.3655 544.714C38.2397 542.313 37.0153 539.249 36.9018 536.046C36.7884 532.844 37.7929 529.702 39.7435 527.157L58.7027 502.422C66.8175 505.07 74.6942 504.29 82.1933 498.069L86.281 506.944C87.4974 509.559 88.1674 512.394 88.25 515.276C88.3326 518.158 87.8261 521.027 86.7614 523.708C85.6967 526.388 84.0962 528.824 82.0575 530.866C80.0189 532.908 77.5848 534.514 74.9038 535.586Z" fill="#0B0526"/>
<path d="M17.0549 325.942L3.15514 337.824C2.00169 338.81 1.11621 340.071 0.580814 341.49C0.0454131 342.909 -0.122593 344.439 0.0923655 345.94C0.307324 347.441 0.898296 348.863 1.81049 350.076C2.72269 351.288 3.92659 352.25 5.3106 352.874C7.3941 353.813 9.75695 353.927 11.9215 353.193C14.086 352.459 15.8908 350.932 16.9709 348.921L27.0224 330.202L73.1182 246.215L55.7815 242.961L17.0549 325.942Z" fill="#A0616A"/>
<path d="M75.8956 248.574C66.8922 245.861 58.4585 244.263 51.9178 246.372C53.2889 229.432 56.1147 214.299 65.3006 207.067L78.3591 208.599L75.8956 248.574Z" fill="#FFBB4E"/>
<path d="M124.915 133.964L74.7749 130.884L75.3919 120.871C92.8947 109.088 109.608 110.115 125.532 123.952L124.915 133.964Z" fill="#0B0526"/>
</svg>
