<svg width="26" height="23" viewBox="0 0 26 23" fill="none" xmlns="http://www.w3.org/2000/svg">
<path fill-rule="evenodd" clip-rule="evenodd" d="M6.6567 3.39314H18.9163L21.714 8.98857H3.85899L6.6567 3.39314ZM3.69392 17.3817H2.99449V15.9829H5.79221C6.56437 15.9829 7.19106 15.3562 7.19106 14.584C7.19106 13.8118 6.56437 13.1851 5.79221 13.1851H2.99449V11.7863H22.5785V13.1851H19.7808C19.0086 13.1851 18.3819 13.8118 18.3819 14.584C18.3819 15.3562 19.0086 15.9829 19.7808 15.9829H22.5785V17.3817H21.8791H3.69392ZM25.3762 10.3874C25.3762 10.3678 25.3664 10.3525 25.365 10.3329C25.3594 10.1874 25.33 10.0447 25.2797 9.90622C25.2671 9.87545 25.2601 9.84467 25.2475 9.8139C25.2391 9.79711 25.2363 9.77893 25.2279 9.76214L21.0314 1.369C20.7949 0.894784 20.3109 0.595428 19.7808 0.595428H5.79221C5.26204 0.595428 4.77803 0.894784 4.54023 1.369L0.343657 9.76214C0.335264 9.77893 0.332466 9.79711 0.325472 9.8139C0.311484 9.84467 0.304489 9.87545 0.293298 9.90622C0.24294 10.0447 0.213564 10.1874 0.207968 10.3329C0.206569 10.3525 0.196777 10.3678 0.196777 10.3874V18.7806C0.196777 18.8701 0.231749 18.9484 0.247136 19.0324C0.216361 19.1778 0.196777 19.3261 0.196777 19.48V20.8789C0.196777 22.0329 1.14101 22.9771 2.29506 22.9771H3.69392C4.84798 22.9771 5.79221 22.0329 5.79221 20.8789V20.1794H19.7808V20.8789C19.7808 22.0329 20.725 22.9771 21.8791 22.9771H23.2779C24.432 22.9771 25.3762 22.0329 25.3762 20.8789V19.48C25.3762 19.3261 25.3566 19.1778 25.3258 19.0324C25.3412 18.9484 25.3762 18.8701 25.3762 18.7806V10.3874Z" fill="black"/>
<mask id="mask0" style="mask-type:alpha" maskUnits="userSpaceOnUse" x="0" y="0" width="26" height="23">
<path d="M6.6567 3.39314H18.9163L21.714 8.98857H3.85899L6.6567 3.39314ZM3.69392 17.3817H2.99449V15.9829H5.79221C6.56437 15.9829 7.19106 15.3562 7.19106 14.584C7.19106 13.8118 6.56437 13.1851 5.79221 13.1851H2.99449V11.7863H22.5785V13.1851H19.7808C19.0086 13.1851 18.3819 13.8118 18.3819 14.584C18.3819 15.3562 19.0086 15.9829 19.7808 15.9829H22.5785V17.3817H21.8791H3.69392ZM25.3762 10.3874C25.3762 10.3678 25.3664 10.3525 25.365 10.3329C25.3594 10.1874 25.33 10.0447 25.2797 9.90622C25.2671 9.87545 25.2601 9.84467 25.2475 9.8139C25.2391 9.79711 25.2363 9.77893 25.2279 9.76214L21.0314 1.369C20.7949 0.894784 20.3109 0.595428 19.7808 0.595428H5.79221C5.26204 0.595428 4.77803 0.894784 4.54023 1.369L0.343657 9.76214C0.335264 9.77893 0.332466 9.79711 0.325472 9.8139C0.311484 9.84467 0.304489 9.87545 0.293298 9.90622C0.24294 10.0447 0.213564 10.1874 0.207968 10.3329C0.206569 10.3525 0.196777 10.3678 0.196777 10.3874V18.7806C0.196777 18.8701 0.231749 18.9484 0.247136 19.0324C0.216361 19.1778 0.196777 19.3261 0.196777 19.48V20.8789C0.196777 22.0329 1.14101 22.9771 2.29506 22.9771H3.69392C4.84798 22.9771 5.79221 22.0329 5.79221 20.8789V20.1794H19.7808V20.8789C19.7808 22.0329 20.725 22.9771 21.8791 22.9771H23.2779C24.432 22.9771 25.3762 22.0329 25.3762 20.8789V19.48C25.3762 19.3261 25.3566 19.1778 25.3258 19.0324C25.3412 18.9484 25.3762 18.8701 25.3762 18.7806V10.3874Z" fill="white"/>
</mask>
<g mask="url(#mask0)">
<path d="M30 -5H-4V29H30V-5Z" fill="#2E2D37"/>
</g>
</svg>
