<?xml version="1.0" standalone="no"?>
<!DOCTYPE svg PUBLIC "-//W3C//DTD SVG 20010904//EN" "http://www.w3.org/TR/2001/REC-SVG-20010904/DTD/svg10.dtd">
<svg version="1.0" xmlns="http://www.w3.org/2000/svg" width="512.000000pt" height="512.000000pt"
  viewBox="0 0 512.000000 512.000000" preserveAspectRatio="xMidYMid meet">

  <g transform="translate(0.000000,512.000000) scale(0.100000,-0.100000)" fill="#f3123c" stroke="none">
    <path d="M2320 5099 c-468 -45 -914 -219 -1300 -507 -132 -99 -366 -328 -462
-452 -252 -327 -420 -692 -497 -1075 -38 -188 -46 -277 -46 -505 0 -228 8
-317 46 -505 77 -383 246 -749 497 -1075 84 -109 313 -338 422 -422 378 -291
783 -461 1265 -530 118 -17 512 -17 630 0 482 69 887 239 1265 530 109 84 338
313 422 422 291 378 461 783 530 1265 17 118 17 512 0 630 -85 593 -323 1077
-731 1486 -221 220 -426 366 -706 500 -413 198 -882 281 -1335 238z m316
-1340 c16 -5 47 -26 67 -47 67 -69 67 -70 67 -478 0 -408 2 -418 65 -448 47
-23 607 -24 661 -1 61 25 64 45 64 381 0 321 4 350 52 409 46 55 99 78 173 73
73 -4 120 -31 163 -92 l27 -39 0 -957 0 -956 -25 -37 c-41 -61 -92 -91 -164
-95 -75 -5 -128 18 -174 73 -48 59 -52 88 -52 409 0 336 -3 356 -64 381 -54
23 -614 22 -661 -1 -64 -30 -65 -40 -65 -455 0 -358 -1 -374 -21 -416 -59
-122 -229 -154 -326 -62 -72 69 -73 70 -73 482 0 411 -2 421 -65 451 -47 23
-607 24 -661 1 -61 -25 -64 -44 -64 -390 0 -333 -2 -350 -58 -408 -87 -93
-225 -89 -310 7 -17 20 -36 53 -42 73 -8 27 -10 317 -8 969 l3 931 27 39 c43
61 90 88 163 92 74 5 127 -18 173 -73 48 -59 52 -88 52 -409 0 -336 3 -356 64
-381 54 -23 614 -22 661 1 64 30 65 40 65 455 0 358 1 374 21 416 26 53 75 92
137 109 47 12 68 11 128 -7z" />
  </g>
</svg>