<svg width="23" height="29" viewBox="0 0 23 29" fill="none" xmlns="http://www.w3.org/2000/svg">
  <path fill-rule="evenodd" clip-rule="evenodd"
    d="M17.3817 18.2834C17.3817 20.2292 16.2319 21.8995 14.584 22.6884V18.2834C14.584 17.1294 13.6398 16.1851 12.4857 16.1851H11.0869C9.93283 16.1851 8.9886 17.1294 8.9886 18.2834V22.6884C7.34075 21.8995 6.19089 20.2292 6.19089 18.2834V14.0868C6.19089 12.6502 6.82737 11.3185 7.8919 10.3967C8.90047 11.3787 10.2714 11.9886 11.7863 11.9886C13.3013 11.9886 14.6722 11.3787 15.6807 10.3981C16.7453 11.3185 17.3817 12.6502 17.3817 14.0868V18.2834ZM11.7863 3.59541C13.3293 3.59541 14.584 4.85019 14.584 6.39313C14.584 7.93607 13.3293 9.19084 11.7863 9.19084C10.2434 9.19084 8.9886 7.93607 8.9886 6.39313C8.9886 4.85019 10.2434 3.59541 11.7863 3.59541ZM21.5783 4.99427H17.1817C16.5578 2.58824 14.3854 0.797699 11.7863 0.797699C9.18724 0.797699 7.01481 2.58824 6.39092 4.99427H1.99432C1.22075 4.99427 0.595459 5.62096 0.595459 6.39313C0.595459 7.1653 1.22075 7.79198 1.99432 7.79198H6.39092C6.40491 7.85214 6.42729 7.91089 6.44548 7.97104C4.54163 9.41606 3.39317 11.657 3.39317 14.0868V18.2834C3.39317 21.7973 5.76424 24.7615 8.9886 25.6792V26.6766C8.9886 27.8306 9.93283 28.7748 11.0869 28.7748H12.4857C13.6398 28.7748 14.584 27.8306 14.584 26.6766V25.6792C17.8084 24.7615 20.1795 21.7973 20.1795 18.2834V14.0868C20.1795 11.657 19.031 9.41606 17.1272 7.97104C17.1453 7.91089 17.1677 7.85214 17.1817 7.79198H21.5783C22.3519 7.79198 22.9772 7.1653 22.9772 6.39313C22.9772 5.62096 22.3519 4.99427 21.5783 4.99427Z"
    fill="black" />
</svg>