<svg xmlns="http://www.w3.org/2000/svg" viewBox="0 0 832.91 1200"><defs><style>.cls-1{fill:#f3123c;}</style></defs><g id="Camada_2" data-name="Camada 2"><g id="Layer_3" data-name="Layer 3"><path class="cls-1" d="M416.45,0C186.46,0,0,186.45,0,416.45A416.67,416.67,0,0,0,15.91,530.39c6.34,22.31,13.27,44.46,24.2,64.48C125.51,751.22,416.45,1200,416.45,1200s291-448.79,376.35-605.14c10.93-20,17.86-42.17,24.19-64.47a416.68,416.68,0,0,0,15.92-113.94C832.91,186.45,646.45,0,416.45,0Zm0,599.82A183.69,183.69,0,0,1,233.07,416.45c0-101.11,82.26-183.37,183.38-183.37s183.37,82.26,183.37,183.37A183.65,183.65,0,0,1,416.45,599.82Z"/></g></g></svg>