<svg width="56" height="45" viewBox="0 0 56 45" fill="none" xmlns="http://www.w3.org/2000/svg">
<path d="M55.3763 5.32656C53.3381 6.23172 51.1487 6.84083 48.8506 7.11558C51.1976 5.70992 52.9973 3.48431 53.8449 0.830613C51.6513 2.1319 49.2191 3.07752 46.6293 3.58867C44.557 1.38009 41.6051 0 38.3381 0C32.0637 0 26.9778 5.08803 26.9778 11.3602C26.9778 12.2505 27.0801 13.1194 27.2718 13.9479C17.8305 13.4751 9.46046 8.95144 3.85489 2.07653C2.87945 3.75479 2.31932 5.70566 2.31932 7.79071C2.31932 11.7308 4.32344 15.2087 7.37115 17.2448C5.50973 17.1851 3.75692 16.674 2.22561 15.8242C2.22561 15.8732 2.22561 15.9179 2.22561 15.9669C2.22561 21.4724 6.14014 26.0642 11.3389 27.1056C10.3869 27.3655 9.38165 27.5039 8.34445 27.5039C7.61394 27.5039 6.90047 27.4315 6.20829 27.3016C7.65441 31.8146 11.8501 35.1008 16.821 35.1924C12.9341 38.2401 8.03564 40.0568 2.7112 40.0568C1.7954 40.0568 0.890246 40.0036 0 39.8971C5.0284 43.1194 10.9982 45 17.4152 45C38.3125 45 49.7366 27.6892 49.7366 12.6764C49.7366 12.1844 49.726 11.6946 49.7047 11.2069C51.926 9.60315 53.8535 7.60329 55.3763 5.32656Z" fill="#FFBB4E"/>
</svg>
