<svg width="2174" height="2187" viewBox="0 0 2174 2187" fill="none" xmlns="http://www.w3.org/2000/svg">
<path d="M2145.53 722.289C2143.06 740.653 2139.34 767.403 2134.3 800.887C2124.21 867.927 2108.86 961.915 2087.81 1069.62C2045.65 1285.39 1980.89 1554.84 1890.35 1773.03C1845.05 1882.19 1793.85 1977.16 1736.74 2046C1679.5 2114.98 1618.68 2155.01 1554.2 2160.56C1490.14 2166.08 1415.53 2138.11 1329.22 2055.55C1242.83 1972.92 1147.21 1837.83 1042.33 1635.4C949.791 1456.79 858.805 1317.14 771.168 1209.92C973.836 1064.83 1122.57 868.783 1212.76 676.385C1424.95 701.736 1650.43 713.309 1829.42 718.474C1930.19 721.382 2016.37 722.263 2077.39 722.418C2105.99 722.49 2129.07 722.402 2145.53 722.289ZM432.001 988.506C511.804 1024.6 601.253 1091.21 697.129 1199.93C632.342 1242.08 562.307 1278.8 487.175 1308.34C240.571 1405.33 111.426 1367.13 58.8791 1301.5C5.28142 1234.56 17.4116 1122.75 87.2907 1041.82C154.858 963.576 275.37 917.664 432.001 988.506ZM1256.4 375.949C1244.29 452.881 1219.46 536.763 1182.37 622.244C1168.43 620.457 1154.56 618.607 1140.79 616.693C1025.12 600.61 916.722 580.024 825.838 553.782C734.331 527.36 663.197 495.919 619.855 459.535C598.437 441.555 584.926 423.295 578.351 404.957C571.927 387.039 571.45 367.219 579.189 344.33C595.263 296.791 646.644 236.653 751.873 163.466C856.511 90.689 943.779 50.0609 1014.41 33.9473C1084.79 17.8912 1137.07 26.441 1174.59 49.7523C1212.21 73.1288 1238.99 113.833 1253.27 170.052C1267.58 226.389 1268.85 296.776 1256.4 375.949Z" stroke="#FFBB4E" stroke-width="50"/>
</svg>
